<svg width="125" height="25" viewBox="0 0 125 25" fill="none" xmlns="http://www.w3.org/2000/svg">
<path d="M1.18892 21.6818V8.18182H3.46449V9.8054H3.59872C3.71804 9.56676 3.88636 9.31321 4.10369 9.04474C4.32102 8.77202 4.61506 8.53977 4.9858 8.34801C5.35653 8.15199 5.82955 8.05398 6.40483 8.05398C7.16335 8.05398 7.8473 8.24787 8.45668 8.63565C9.07031 9.01918 9.55611 9.58807 9.91406 10.3423C10.2763 11.0923 10.4574 12.0128 10.4574 13.1037C10.4574 14.1818 10.2805 15.098 9.92685 15.8523C9.57315 16.6065 9.09162 17.1818 8.48224 17.5781C7.87287 17.9744 7.18253 18.1726 6.41122 18.1726C5.84872 18.1726 5.3821 18.0788 5.01136 17.8913C4.64063 17.7038 4.34233 17.478 4.11648 17.2138C3.89489 16.9453 3.7223 16.6918 3.59872 16.4531H3.50284V21.6818H1.18892ZM3.4581 13.0909C3.4581 13.7259 3.54759 14.282 3.72656 14.7592C3.9098 15.2365 4.17188 15.6094 4.51278 15.8778C4.85795 16.142 5.27557 16.2741 5.76562 16.2741C6.27699 16.2741 6.70526 16.1378 7.05043 15.8651C7.3956 15.5881 7.65554 15.2109 7.83026 14.7337C8.00923 14.2521 8.09872 13.7045 8.09872 13.0909C8.09872 12.4815 8.01136 11.9403 7.83665 11.4673C7.66193 10.9943 7.40199 10.6236 7.05682 10.3551C6.71165 10.0866 6.28125 9.95241 5.76562 9.95241C5.27131 9.95241 4.85156 10.0824 4.50639 10.3423C4.16122 10.6023 3.89915 10.9666 3.72017 11.4354C3.54545 11.9041 3.4581 12.456 3.4581 13.0909ZM16.3616 18.1918C15.4028 18.1918 14.5718 17.9808 13.8687 17.5589C13.1656 17.1371 12.6201 16.5469 12.2323 15.7884C11.8488 15.0298 11.657 14.1435 11.657 13.1293C11.657 12.1151 11.8488 11.2266 12.2323 10.4638C12.6201 9.70099 13.1656 9.10866 13.8687 8.68679C14.5718 8.26491 15.4028 8.05398 16.3616 8.05398C17.3204 8.05398 18.1514 8.26491 18.8545 8.68679C19.5576 9.10866 20.1009 9.70099 20.4845 10.4638C20.8722 11.2266 21.0661 12.1151 21.0661 13.1293C21.0661 14.1435 20.8722 15.0298 20.4845 15.7884C20.1009 16.5469 19.5576 17.1371 18.8545 17.5589C18.1514 17.9808 17.3204 18.1918 16.3616 18.1918ZM16.3744 16.3381C16.8943 16.3381 17.3289 16.1953 17.6784 15.9098C18.0278 15.62 18.2877 15.2322 18.4582 14.7464C18.6329 14.2607 18.7203 13.7195 18.7203 13.1229C18.7203 12.522 18.6329 11.9787 18.4582 11.4929C18.2877 11.0028 18.0278 10.6129 17.6784 10.3232C17.3289 10.0334 16.8943 9.88849 16.3744 9.88849C15.8417 9.88849 15.3985 10.0334 15.0448 10.3232C14.6954 10.6129 14.4333 11.0028 14.2586 11.4929C14.0882 11.9787 14.0029 12.522 14.0029 13.1229C14.0029 13.7195 14.0882 14.2607 14.2586 14.7464C14.4333 15.2322 14.6954 15.62 15.0448 15.9098C15.3985 16.1953 15.8417 16.3381 16.3744 16.3381ZM22.6701 18V8.18182H24.9137V9.81818H25.016C25.195 9.25142 25.5018 8.81463 25.9364 8.50781C26.3753 8.19673 26.8761 8.04119 27.4386 8.04119C27.5664 8.04119 27.7092 8.04758 27.8668 8.06037C28.0288 8.06889 28.163 8.08381 28.2695 8.10511V10.2337C28.1715 10.1996 28.016 10.1697 27.8029 10.1442C27.5941 10.1143 27.3917 10.0994 27.1957 10.0994C26.7738 10.0994 26.3945 10.1911 26.0579 10.3743C25.7255 10.5533 25.4634 10.8026 25.2717 11.1222C25.0799 11.4418 24.984 11.8104 24.984 12.228V18H22.6701ZM34.8769 8.18182V9.97159H29.2327V8.18182H34.8769ZM30.6261 5.82955H32.9401V15.0469C32.9401 15.358 32.9869 15.5966 33.0807 15.7628C33.1787 15.9247 33.3065 16.0355 33.4642 16.0952C33.6219 16.1548 33.7966 16.1847 33.9884 16.1847C34.1332 16.1847 34.2653 16.174 34.3847 16.1527C34.5082 16.1314 34.602 16.1122 34.6659 16.0952L35.0558 17.9041C34.9323 17.9467 34.7554 17.9936 34.5253 18.0447C34.2994 18.0959 34.0225 18.1257 33.6943 18.1342C33.1148 18.1513 32.5928 18.0639 32.1283 17.8722C31.6638 17.6761 31.2952 17.3736 31.0225 16.9645C30.754 16.5554 30.6219 16.044 30.6261 15.4304V5.82955ZM41.4251 8.18182V9.97159H35.6211V8.18182H41.4251ZM37.0721 18V7.25497C37.0721 6.59446 37.2084 6.04474 37.4812 5.60582C37.7582 5.1669 38.1289 4.83878 38.5934 4.62145C39.0579 4.40412 39.5735 4.29545 40.1403 4.29545C40.5408 4.29545 40.8966 4.32741 41.2077 4.39134C41.5188 4.45526 41.7489 4.51278 41.8981 4.56392L41.4378 6.35369C41.3398 6.32386 41.2163 6.29403 41.0671 6.2642C40.918 6.23011 40.7518 6.21307 40.5685 6.21307C40.1381 6.21307 39.8334 6.31747 39.6545 6.52628C39.4797 6.73082 39.3924 7.02486 39.3924 7.40838V18H37.0721ZM46.7907 18.1918C45.8319 18.1918 45.001 17.9808 44.2978 17.5589C43.5947 17.1371 43.0493 16.5469 42.6615 15.7884C42.2779 15.0298 42.0862 14.1435 42.0862 13.1293C42.0862 12.1151 42.2779 11.2266 42.6615 10.4638C43.0493 9.70099 43.5947 9.10866 44.2978 8.68679C45.001 8.26491 45.8319 8.05398 46.7907 8.05398C47.7495 8.05398 48.5805 8.26491 49.2836 8.68679C49.9868 9.10866 50.5301 9.70099 50.9136 10.4638C51.3014 11.2266 51.4953 12.1151 51.4953 13.1293C51.4953 14.1435 51.3014 15.0298 50.9136 15.7884C50.5301 16.5469 49.9868 17.1371 49.2836 17.5589C48.5805 17.9808 47.7495 18.1918 46.7907 18.1918ZM46.8035 16.3381C47.3234 16.3381 47.7581 16.1953 48.1075 15.9098C48.4569 15.62 48.7169 15.2322 48.8873 14.7464C49.062 14.2607 49.1494 13.7195 49.1494 13.1229C49.1494 12.522 49.062 11.9787 48.8873 11.4929C48.7169 11.0028 48.4569 10.6129 48.1075 10.3232C47.7581 10.0334 47.3234 9.88849 46.8035 9.88849C46.2708 9.88849 45.8277 10.0334 45.474 10.3232C45.1245 10.6129 44.8625 11.0028 44.6877 11.4929C44.5173 11.9787 44.4321 12.522 44.4321 13.1229C44.4321 13.7195 44.5173 14.2607 44.6877 14.7464C44.8625 15.2322 45.1245 15.62 45.474 15.9098C45.8277 16.1953 46.2708 16.3381 46.8035 16.3381ZM55.4132 4.90909V18H53.0992V4.90909H55.4132ZM57.4326 18V8.18182H59.7465V18H57.4326ZM58.5959 6.78835C58.2295 6.78835 57.9141 6.6669 57.6499 6.42401C57.3857 6.17685 57.2536 5.88068 57.2536 5.53551C57.2536 5.18608 57.3857 4.88991 57.6499 4.64702C57.9141 4.39986 58.2295 4.27628 58.5959 4.27628C58.9667 4.27628 59.282 4.39986 59.542 4.64702C59.8062 4.88991 59.9383 5.18608 59.9383 5.53551C59.9383 5.88068 59.8062 6.17685 59.542 6.42401C59.282 6.6669 58.9667 6.78835 58.5959 6.78835ZM66.0486 18.1918C65.0898 18.1918 64.2588 17.9808 63.5557 17.5589C62.8526 17.1371 62.3071 16.5469 61.9194 15.7884C61.5358 15.0298 61.3441 14.1435 61.3441 13.1293C61.3441 12.1151 61.5358 11.2266 61.9194 10.4638C62.3071 9.70099 62.8526 9.10866 63.5557 8.68679C64.2588 8.26491 65.0898 8.05398 66.0486 8.05398C67.0074 8.05398 67.8384 8.26491 68.5415 8.68679C69.2446 9.10866 69.788 9.70099 70.1715 10.4638C70.5593 11.2266 70.7532 12.1151 70.7532 13.1293C70.7532 14.1435 70.5593 15.0298 70.1715 15.7884C69.788 16.5469 69.2446 17.1371 68.5415 17.5589C67.8384 17.9808 67.0074 18.1918 66.0486 18.1918ZM66.0614 16.3381C66.5813 16.3381 67.016 16.1953 67.3654 15.9098C67.7148 15.62 67.9748 15.2322 68.1452 14.7464C68.3199 14.2607 68.4073 13.7195 68.4073 13.1229C68.4073 12.522 68.3199 11.9787 68.1452 11.4929C67.9748 11.0028 67.7148 10.6129 67.3654 10.3232C67.016 10.0334 66.5813 9.88849 66.0614 9.88849C65.5287 9.88849 65.0856 10.0334 64.7319 10.3232C64.3824 10.6129 64.1204 11.0028 63.9456 11.4929C63.7752 11.9787 63.69 12.522 63.69 13.1229C63.69 13.7195 63.7752 14.2607 63.9456 14.7464C64.1204 15.2322 64.3824 15.62 64.7319 15.9098C65.0856 16.1953 65.5287 16.3381 66.0614 16.3381Z" fill="black"/>
<path d="M78.271 4.54688C78.5034 4.54688 78.6675 4.60156 78.7632 4.71094C78.8657 4.81348 78.917 4.99121 78.917 5.24414V10.3506C79.3613 9.6875 79.874 9.18164 80.4551 8.83301C81.043 8.47754 81.6753 8.2998 82.3521 8.2998C82.9741 8.2998 83.5142 8.43652 83.9722 8.70996C84.4302 8.97656 84.7822 9.36279 85.0283 9.86865C85.2744 10.3745 85.3975 10.9658 85.3975 11.6426V16.6055H86.2383C86.4707 16.6055 86.6348 16.6602 86.7305 16.7695C86.833 16.8721 86.8843 17.0498 86.8843 17.3027C86.8843 17.5557 86.833 17.7368 86.7305 17.8462C86.6348 17.9487 86.4707 18 86.2383 18H82.916C82.6836 18 82.5161 17.9487 82.4136 17.8462C82.3179 17.7368 82.27 17.5557 82.27 17.3027C82.27 17.0498 82.3179 16.8721 82.4136 16.7695C82.5161 16.6602 82.6836 16.6055 82.916 16.6055H83.8594V11.7964C83.8594 11.188 83.7192 10.7061 83.439 10.3506C83.1587 9.99512 82.7451 9.81738 82.1982 9.81738C81.6172 9.81738 81.0737 9.98486 80.5679 10.3198C80.0688 10.6548 79.6689 11.1162 79.3682 11.7041C79.0674 12.292 78.917 12.9482 78.917 13.6729V16.6055H79.8604C80.0928 16.6055 80.2568 16.6602 80.3525 16.7695C80.4551 16.8721 80.5063 17.0498 80.5063 17.3027C80.5063 17.5557 80.4551 17.7368 80.3525 17.8462C80.2568 17.9487 80.0928 18 79.8604 18H76.5381C76.3057 18 76.1382 17.9487 76.0356 17.8462C75.9399 17.7368 75.8921 17.5557 75.8921 17.3027C75.8921 17.0498 75.9399 16.8721 76.0356 16.7695C76.1382 16.6602 76.3057 16.6055 76.5381 16.6055H77.3789V5.94141H76.4355C76.2031 5.94141 76.0356 5.89014 75.9331 5.7876C75.8374 5.67822 75.7896 5.49707 75.7896 5.24414C75.7896 4.99121 75.8374 4.81348 75.9331 4.71094C76.0356 4.60156 76.2031 4.54688 76.4355 4.54688H78.271ZM96.7695 8.52539C97.0019 8.52539 97.1659 8.58008 97.2616 8.68945C97.3642 8.79199 97.4154 8.96973 97.4154 9.22266V16.6055H98.2563C98.4887 16.6055 98.6528 16.6602 98.7485 16.7695C98.851 16.8721 98.9023 17.0498 98.9023 17.3027C98.9023 17.5557 98.851 17.7368 98.7485 17.8462C98.6528 17.9487 98.4887 18 98.2563 18H96.6259C96.3935 18 96.226 17.9487 96.1235 17.8462C96.0278 17.7437 95.9799 17.5659 95.9799 17.313V16.0723C95.5287 16.7695 94.9989 17.3027 94.3905 17.6719C93.789 18.041 93.1396 18.2256 92.4423 18.2256C91.8202 18.2256 91.2802 18.0923 90.8222 17.8257C90.3642 17.5522 90.0121 17.1626 89.766 16.6567C89.5199 16.1509 89.3969 15.5596 89.3969 14.8828V9.91992H88.5561C88.3237 9.91992 88.1562 9.86865 88.0536 9.76611C87.9579 9.65674 87.9101 9.47559 87.9101 9.22266C87.9101 8.96973 87.9579 8.79199 88.0536 8.68945C88.1562 8.58008 88.3237 8.52539 88.5561 8.52539H90.289C90.5214 8.52539 90.6855 8.58008 90.7812 8.68945C90.8837 8.79199 90.935 8.96973 90.935 9.22266V14.729C90.935 15.3374 91.0751 15.8193 91.3554 16.1748C91.6357 16.5303 92.0492 16.708 92.5961 16.708C93.1772 16.708 93.7172 16.5405 94.2162 16.2056C94.7221 15.8706 95.1254 15.4092 95.4262 14.8213C95.727 14.2334 95.8774 13.5771 95.8774 12.8525V9.91992H94.4213C94.1889 9.91992 94.0214 9.86865 93.9189 9.76611C93.8232 9.65674 93.7753 9.47559 93.7753 9.22266C93.7753 8.96973 93.8232 8.79199 93.9189 8.68945C94.0214 8.58008 94.1889 8.52539 94.4213 8.52539H96.7695ZM106.798 8.2998C107.42 8.2998 107.96 8.43652 108.418 8.70996C108.876 8.97656 109.228 9.36279 109.474 9.86865C109.721 10.3745 109.844 10.9658 109.844 11.6426V16.6055H110.684C110.917 16.6055 111.081 16.6602 111.177 16.7695C111.279 16.8721 111.33 17.0498 111.33 17.3027C111.33 17.5557 111.279 17.7368 111.177 17.8462C111.081 17.9487 110.917 18 110.684 18H107.362C107.13 18 106.962 17.9487 106.86 17.8462C106.764 17.7368 106.716 17.5557 106.716 17.3027C106.716 17.0498 106.764 16.8721 106.86 16.7695C106.962 16.6602 107.13 16.6055 107.362 16.6055H108.306V11.7964C108.306 11.188 108.165 10.7061 107.885 10.3506C107.605 9.99512 107.191 9.81738 106.644 9.81738C106.063 9.81738 105.52 9.98486 105.014 10.3198C104.515 10.6548 104.115 11.1162 103.814 11.7041C103.514 12.292 103.363 12.9482 103.363 13.6729V16.6055H104.306C104.539 16.6055 104.703 16.6602 104.799 16.7695C104.901 16.8721 104.952 17.0498 104.952 17.3027C104.952 17.5557 104.901 17.7368 104.799 17.8462C104.703 17.9487 104.539 18 104.306 18H100.984C100.752 18 100.584 17.9487 100.482 17.8462C100.386 17.7368 100.338 17.5557 100.338 17.3027C100.338 17.0498 100.386 16.8721 100.482 16.7695C100.584 16.6602 100.752 16.6055 100.984 16.6055H101.825V9.91992H100.779C100.547 9.91992 100.379 9.86865 100.277 9.76611C100.181 9.65674 100.133 9.47559 100.133 9.22266C100.133 8.96973 100.181 8.79199 100.277 8.68945C100.379 8.58008 100.547 8.52539 100.779 8.52539H102.615C102.847 8.52539 103.011 8.58008 103.107 8.68945C103.209 8.79199 103.261 8.96973 103.261 9.22266V10.4531C103.712 9.75586 104.238 9.22266 104.84 8.85352C105.448 8.48438 106.101 8.2998 106.798 8.2998ZM116.212 5.60303C116.492 5.60303 116.69 5.6543 116.806 5.75684C116.923 5.85938 116.981 6.03027 116.981 6.26953V9.3457H121.195C121.428 9.3457 121.592 9.40039 121.687 9.50977C121.79 9.6123 121.841 9.79004 121.841 10.043C121.841 10.2959 121.79 10.4771 121.687 10.5864C121.592 10.689 121.428 10.7402 121.195 10.7402H116.981V14.4727C116.981 15.252 117.114 15.8228 117.381 16.1851C117.654 16.5474 118.126 16.7285 118.796 16.7285C119.254 16.7285 119.736 16.6362 120.241 16.4517C120.747 16.2671 121.236 16.021 121.708 15.7134C121.803 15.645 121.909 15.6108 122.026 15.6108C122.258 15.6108 122.456 15.7681 122.62 16.0825C122.709 16.2603 122.754 16.4141 122.754 16.5439C122.754 16.7627 122.641 16.9404 122.415 17.0771C121.882 17.4121 121.287 17.689 120.631 17.9077C119.975 18.1196 119.363 18.2256 118.796 18.2256C117.634 18.2256 116.782 17.9248 116.242 17.3232C115.709 16.7148 115.443 15.8091 115.443 14.606V10.7402H113.361C113.129 10.7402 112.961 10.689 112.859 10.5864C112.763 10.4771 112.715 10.2959 112.715 10.043C112.715 9.79004 112.763 9.6123 112.859 9.50977C112.961 9.40039 113.129 9.3457 113.361 9.3457H115.443V6.26953C115.443 6.03027 115.501 5.85938 115.617 5.75684C115.733 5.6543 115.931 5.60303 116.212 5.60303Z" fill="black"/>
</svg>
